<svg xmlns="http://www.w3.org/2000/svg" viewBox="0 0 180 180" role="img" aria-labelledby="title desc">
  <title id="title">Folsom Fireflies logo</title>
  <desc id="desc">A glowing firefly shaped like a small robot over a leaf.</desc>
  <defs>
    <radialGradient id="glow" cx="50%" cy="50%" r="60%">
      <stop offset="0" stop-color="#fff7a8"/>
      <stop offset=".45" stop-color="#ffd54a"/>
      <stop offset="1" stop-color="#f0a400"/>
    </radialGradient>
    <linearGradient id="leaf" x1="0" y1="1" x2="1" y2="0">
      <stop stop-color="#175b3c"/>
      <stop offset="1" stop-color="#53a548"/>
    </linearGradient>
  </defs>
  <path d="M28 135c31-39 73-49 124-41-15 48-57 71-110 59 22-19 43-32 67-40-35 5-58 13-81 22z" fill="url(#leaf)"/>
  <ellipse cx="92" cy="82" rx="25" ry="39" fill="#17281f"/>
  <ellipse cx="92" cy="103" rx="21" ry="23" fill="url(#glow)"/>
  <path d="M73 67C48 48 42 69 63 84M111 67c25-19 31 2 10 17" fill="none" stroke="#8ed19a" stroke-width="12" stroke-linecap="round" opacity=".85"/>
  <circle cx="84" cy="53" r="4" fill="#f6fff5"/>
  <circle cx="100" cy="53" r="4" fill="#f6fff5"/>
  <path d="M82 42 70 25M102 42l12-17" fill="none" stroke="#17281f" stroke-width="5" stroke-linecap="round"/>
  <circle cx="69" cy="24" r="4" fill="#17281f"/>
  <circle cx="115" cy="24" r="4" fill="#17281f"/>
  <path d="M79 75h26M92 63v24" stroke="#f4f0d8" stroke-width="4" stroke-linecap="round"/>
</svg>
